<svg width="1700" height="512" viewBox="0 0 1700 512" fill="none" xmlns="http://www.w3.org/2000/svg">
<path d="M700.154 220.232C708.687 220.232 717.05 221.427 725.242 223.816C733.434 226.035 740.858 229.789 747.514 235.08L745.466 250.696C738.81 248.819 732.837 247.197 727.546 245.832C722.255 244.467 716.367 243.784 709.882 243.784C703.738 243.784 698.789 244.893 695.034 247.112C691.45 249.16 688.719 253.171 686.842 259.144C685.135 265.117 684.282 273.821 684.282 285.256C684.282 296.179 685.135 304.627 686.842 310.6C688.549 316.403 691.194 320.499 694.778 322.888C698.362 325.107 703.055 326.216 708.858 326.216C713.466 326.216 717.562 325.704 721.146 324.68C724.73 323.485 728.399 321.779 732.154 319.56C735.909 317.171 740.261 314.184 745.21 310.6L747.77 328.008C741.967 334.664 734.799 340.381 726.266 345.16C717.903 349.768 708.175 352.072 697.082 352.072C681.039 352.072 669.605 346.44 662.778 335.176C655.951 323.741 652.538 307.187 652.538 285.512C652.538 268.957 654.245 255.987 657.658 246.6C661.242 237.043 666.533 230.301 673.53 226.376C680.698 222.28 689.573 220.232 700.154 220.232ZM772.858 169.8V349H748.538L745.21 326.472L741.882 323.912V239.944L743.418 236.36C742.735 231.411 742.309 226.461 742.138 221.512C741.967 216.392 741.882 211.187 741.882 205.896V169.8H772.858ZM863.972 220.232C884.281 220.232 898.873 223.816 907.748 230.984C916.623 237.981 921.145 248.392 921.316 262.216C921.487 273.651 918.756 282.355 913.124 288.328C907.663 294.131 898.532 297.032 885.732 297.032H814.052V277.832H877.284C883.087 277.832 886.756 276.296 888.292 273.224C889.999 270.152 890.852 266.397 890.852 261.96C890.681 254.963 888.633 250.099 884.708 247.368C880.953 244.637 874.468 243.272 865.252 243.272C857.231 243.272 851.001 244.381 846.564 246.6C842.127 248.819 838.969 252.829 837.092 258.632C835.385 264.435 834.532 272.797 834.532 283.72C834.532 295.325 835.641 304.285 837.86 310.6C840.079 316.915 843.748 321.267 848.868 323.656C853.988 325.875 860.815 326.984 869.348 326.984C875.663 326.984 882.916 326.728 891.108 326.216C899.471 325.704 907.492 325.021 915.172 324.168L918.244 343.88C913.636 345.757 908.345 347.293 902.372 348.488C896.399 349.683 890.169 350.536 883.684 351.048C877.369 351.731 871.396 352.072 865.764 352.072C850.404 352.072 838.031 349.853 828.644 345.416C819.428 340.808 812.687 333.64 808.42 323.912C804.324 314.184 802.276 301.64 802.276 286.28C802.276 269.725 804.324 256.669 808.42 247.112C812.687 237.384 819.343 230.472 828.388 226.376C837.604 222.28 849.465 220.232 863.972 220.232ZM1068.48 223.304L1025.21 341.576C1024.36 343.795 1023 345.587 1021.12 346.952C1019.41 348.317 1017.28 349 1014.72 349H987.582C985.193 349 983.059 348.317 981.182 346.952C979.305 345.587 977.939 343.795 977.086 341.576L933.822 223.304H966.846L993.214 305.736C994.409 309.491 995.518 313.331 996.542 317.256C997.566 321.011 998.505 324.68 999.358 328.264H1002.69C1003.88 324.509 1004.99 320.755 1006.01 317C1007.21 313.245 1008.32 309.491 1009.34 305.736L1035.71 223.304H1068.48Z" fill="#7196E0"/>
<path d="M1150.89 220.232C1160.96 220.232 1169.41 221.597 1176.23 224.328C1183.23 226.888 1188.52 231.325 1192.11 237.64C1195.69 243.955 1197.48 252.659 1197.48 263.752V349H1172.91L1168.55 321.864L1166.25 318.28V263.496C1166.25 256.84 1164.71 252.061 1161.64 249.16C1158.57 246.088 1152.68 244.552 1143.98 244.552C1137.49 244.552 1129.3 244.808 1119.4 245.32C1109.67 245.832 1099.86 246.515 1089.96 247.368L1087.15 226.12C1093.12 224.925 1099.86 223.901 1107.37 223.048C1114.88 222.195 1122.47 221.512 1130.15 221C1137.83 220.488 1144.75 220.232 1150.89 220.232ZM1184.17 271.688L1183.91 290.888H1126.31C1121.19 291.059 1117.52 292.424 1115.31 294.984C1113.09 297.544 1111.98 301.043 1111.98 305.48V312.392C1111.98 317.512 1113.34 321.437 1116.07 324.168C1118.8 326.728 1123.07 328.008 1128.87 328.008C1133.48 328.008 1138.6 327.069 1144.23 325.192C1149.87 323.315 1155.41 320.584 1160.87 317C1166.51 313.416 1171.54 309.149 1175.98 304.2V320.328C1174.27 322.888 1171.8 325.96 1168.55 329.544C1165.31 332.957 1161.3 336.371 1156.52 339.784C1151.91 343.197 1146.54 346.013 1140.39 348.232C1134.42 350.451 1127.76 351.56 1120.43 351.56C1112.92 351.56 1106.18 350.28 1100.2 347.72C1094.23 344.989 1089.54 341.064 1086.12 335.944C1082.71 330.653 1081 324.168 1081 316.488V303.176C1081 293.277 1084.24 285.597 1090.73 280.136C1097.39 274.504 1106.43 271.688 1117.87 271.688H1184.17ZM1262.13 169.8V311.112C1262.13 315.891 1263.5 319.56 1266.23 322.12C1268.96 324.509 1272.89 325.704 1278.01 325.704H1289.01L1292.6 347.464C1290.72 348.317 1288.08 349.085 1284.66 349.768C1281.42 350.451 1278.01 350.877 1274.42 351.048C1271.01 351.389 1268.02 351.56 1265.46 351.56C1255.05 351.56 1246.77 348.744 1240.63 343.112C1234.49 337.48 1231.41 329.373 1231.41 318.792V169.8H1262.13ZM1368.74 220.232C1384.1 220.232 1396.3 222.365 1405.35 226.632C1414.56 230.899 1421.13 237.896 1425.06 247.624C1429.16 257.352 1431.2 270.237 1431.2 286.28C1431.2 302.323 1429.16 315.208 1425.06 324.936C1421.13 334.493 1414.56 341.491 1405.35 345.928C1396.3 350.195 1384.1 352.328 1368.74 352.328C1353.72 352.328 1341.6 350.195 1332.39 345.928C1323.34 341.491 1316.77 334.493 1312.68 324.936C1308.58 315.208 1306.53 302.323 1306.53 286.28C1306.53 270.237 1308.58 257.352 1312.68 247.624C1316.77 237.896 1323.34 230.899 1332.39 226.632C1341.6 222.365 1353.72 220.232 1368.74 220.232ZM1368.74 243.784C1361.23 243.784 1355.26 245.064 1350.82 247.624C1346.55 250.013 1343.48 254.28 1341.6 260.424C1339.73 266.568 1338.79 275.187 1338.79 286.28C1338.79 297.373 1339.73 305.992 1341.6 312.136C1343.48 318.28 1346.55 322.547 1350.82 324.936C1355.26 327.325 1361.23 328.52 1368.74 328.52C1376.42 328.52 1382.48 327.325 1386.92 324.936C1391.35 322.547 1394.43 318.28 1396.13 312.136C1398.01 305.992 1398.95 297.373 1398.95 286.28C1398.95 275.187 1398.01 266.568 1396.13 260.424C1394.43 254.28 1391.35 250.013 1386.92 247.624C1382.48 245.064 1376.42 243.784 1368.74 243.784ZM1543.1 220.232C1566.48 220.232 1578.17 231.752 1578.17 254.792V349H1547.19V264.264C1547.19 257.437 1546 252.744 1543.61 250.184C1541.22 247.624 1537.21 246.344 1531.58 246.344C1525.26 246.344 1518.78 247.795 1512.12 250.696C1505.46 253.427 1497.44 257.437 1488.06 262.728L1486.78 244.04C1495.99 236.36 1505.38 230.472 1514.94 226.376C1524.49 222.28 1533.88 220.232 1543.1 220.232ZM1485.75 223.304L1488.82 247.88L1491.38 251.464V349H1460.41V223.304H1485.75Z" fill="#3B4354"/>
<g clip-path="url(#clip0_20_21)">
<g filter="url(#filter0_i_20_21)">
<path d="M285.215 62.05C256.715 119.95 228.215 177.7 199.715 235.3C171.515 292.9 143.165 350.65 114.665 408.55H57.9648C86.4648 350.65 114.815 292.9 143.015 235.3C171.515 177.7 200.015 119.95 228.515 62.05H285.215ZM397.053 400V365H430.053V400H397.053Z" fill="#7196E0"/>
<path d="M290.719 403.6C275.519 403.6 261.819 399.9 249.619 392.5C237.619 385.1 228.119 375 221.119 362.2C214.119 349.4 210.619 335.1 210.619 319.3C210.619 303.1 214.119 288.7 221.119 276.1C228.119 263.3 237.619 253.2 249.619 245.8C261.819 238.4 275.519 234.7 290.719 234.7C304.119 234.7 316.019 237.6 326.419 243.4C336.819 249 345.019 256.6 351.019 266.2L346.519 273.1V172.9H374.719V400H347.419V365.5L351.019 370.3C345.419 380.9 337.219 389.1 326.419 394.9C315.819 400.7 303.919 403.6 290.719 403.6ZM293.119 376.6C303.319 376.6 312.419 374.1 320.419 369.1C328.419 364.1 334.719 357.3 339.319 348.7C344.119 339.9 346.519 330.1 346.519 319.3C346.519 308.3 344.119 298.5 339.319 289.9C334.719 281.1 328.419 274.2 320.419 269.2C312.419 264.2 303.319 261.7 293.119 261.7C283.119 261.7 274.019 264.3 265.819 269.5C257.819 274.5 251.519 281.3 246.919 289.9C242.319 298.3 240.019 308.1 240.019 319.3C240.019 330.1 242.319 339.9 246.919 348.7C251.519 357.3 257.819 364.1 265.819 369.1C273.819 374.1 282.919 376.6 293.119 376.6Z" fill="#3B4354"/>
</g>
</g>
<defs>
<filter id="filter0_i_20_21" x="57.9648" y="62.05" width="372.088" height="350.5" filterUnits="userSpaceOnUse" color-interpolation-filters="sRGB">
<feFlood flood-opacity="0" result="BackgroundImageFix"/>
<feBlend mode="normal" in="SourceGraphic" in2="BackgroundImageFix" result="shape"/>
<feColorMatrix in="SourceAlpha" type="matrix" values="0 0 0 0 0 0 0 0 0 0 0 0 0 0 0 0 0 0 127 0" result="hardAlpha"/>
<feOffset dy="4"/>
<feGaussianBlur stdDeviation="2"/>
<feComposite in2="hardAlpha" operator="arithmetic" k2="-1" k3="1"/>
<feColorMatrix type="matrix" values="0 0 0 0 0 0 0 0 0 0 0 0 0 0 0 0 0 0 0.25 0"/>
<feBlend mode="normal" in2="shape" result="effect1_innerShadow_20_21"/>
</filter>
<clipPath id="clip0_20_21">
<rect width="512" height="512" rx="8" fill="white"/>
</clipPath>
</defs>
</svg>
